<?xml version="1.0" standalone="no"?>
<!DOCTYPE svg PUBLIC "-//W3C//DTD SVG 20010904//EN"
 "http://www.w3.org/TR/2001/REC-SVG-20010904/DTD/svg10.dtd">
<svg version="1.0" xmlns="http://www.w3.org/2000/svg"
 width="1437.000000pt" height="1437.000000pt" viewBox="0 0 1437.000000 1437.000000"
 preserveAspectRatio="xMidYMid meet">
<metadata>
Created by potrace 1.14, written by Peter Selinger 2001-2017
</metadata>
<g transform="translate(0.000000,1437.000000) scale(0.100000,-0.100000)"
fill="#000000" stroke="none">
<path d="M7912 14350 c-11 -19 -22 -20 -160 -20 -102 0 -152 -4 -160 -12 -7
-7 -42 -13 -80 -14 -37 0 -125 -7 -195 -14 l-128 -13 -30 34 c-26 31 -29 32
-29 12 0 -12 -4 -25 -10 -28 -5 -3 -10 -15 -10 -26 0 -12 -11 -24 -27 -31 -16
-6 -42 -17 -60 -24 -17 -8 -47 -14 -66 -14 -20 0 -37 -6 -39 -12 -3 -8 -24
-13 -54 -13 -53 -1 -104 -18 -104 -35 0 -5 -7 -10 -15 -10 -8 0 -24 -5 -34
-12 -15 -9 -26 -9 -43 -1 -25 11 -78 6 -78 -7 0 -5 -22 -14 -50 -21 -41 -10
-50 -17 -50 -34 0 -35 -31 -55 -83 -55 -26 0 -49 -5 -54 -12 -8 -13 -35 -25
-120 -55 -24 -9 -43 -19 -43 -24 0 -5 -7 -9 -15 -9 -8 0 -15 -4 -15 -9 0 -5
-10 -13 -22 -17 -12 -3 -28 -13 -36 -20 -7 -8 -23 -14 -34 -14 -11 0 -28 -8
-37 -18 -23 -27 -55 -42 -90 -42 -17 0 -31 -4 -31 -10 0 -16 -49 -23 -65 -10
-12 10 -15 9 -15 -8 0 -23 -47 -72 -68 -72 -7 0 -15 -7 -18 -15 -4 -8 -10 -12
-15 -9 -5 3 -9 0 -9 -6 0 -6 -4 -8 -10 -5 -5 3 -10 1 -10 -4 0 -6 -7 -11 -15
-11 -8 0 -15 -3 -15 -8 0 -9 -71 -41 -102 -45 -11 -2 -26 -10 -32 -19 -13 -18
-60 -43 -98 -52 -16 -3 -28 -11 -28 -16 0 -6 -13 -10 -28 -10 -16 0 -37 -6
-48 -14 -13 -10 -23 -11 -31 -4 -10 8 -13 6 -13 -4 0 -20 -65 -88 -84 -88 -9
0 -16 -4 -16 -8 0 -11 -74 -52 -94 -52 -9 0 -16 -3 -16 -8 0 -4 -16 -16 -35
-27 -20 -10 -49 -31 -65 -47 -17 -15 -34 -28 -40 -28 -5 0 -10 -4 -10 -9 0
-13 -48 -29 -105 -34 -27 -3 -51 -10 -53 -16 -2 -6 -11 -11 -21 -11 -9 0 -36
-9 -59 -20 -22 -11 -55 -20 -72 -20 -17 0 -41 -6 -53 -14 -19 -12 -214 -40
-257 -37 -43 4 -201 0 -245 -5 -27 -4 -62 -13 -77 -20 -15 -8 -43 -14 -63 -14
-19 0 -35 -4 -35 -10 0 -5 -30 -8 -70 -7 -38 1 -70 6 -70 10 0 15 -64 3 -80
-14 -8 -9 -25 -19 -36 -23 -12 -4 -31 -15 -43 -25 -20 -17 -21 -28 -21 -164 0
-80 4 -147 9 -149 5 -2 12 -23 14 -48 7 -66 25 -127 42 -144 9 -8 15 -33 15
-56 0 -23 6 -48 13 -55 31 -35 34 -44 34 -85 0 -47 -18 -76 -43 -66 -9 3 -25
-4 -40 -19 -13 -13 -41 -27 -62 -31 -20 -4 -39 -10 -42 -13 -14 -17 -71 -41
-97 -41 -17 0 -34 -8 -43 -19 -7 -11 -17 -18 -21 -16 -10 7 -19 -22 -13 -39 3
-8 20 -21 37 -29 l31 -16 -28 -12 c-25 -12 -27 -16 -25 -68 3 -70 15 -113 33
-123 16 -9 11 -38 -7 -38 -6 0 -17 -7 -26 -15 -51 -46 -60 -53 -65 -48 -3 3
-13 -2 -22 -11 -9 -9 -29 -20 -45 -23 -16 -3 -29 -9 -29 -14 0 -5 -6 -9 -14
-9 -8 0 -22 -7 -30 -16 -9 -9 -36 -26 -60 -39 -40 -21 -44 -22 -59 -6 -40 41
-40 41 -99 -18 -63 -63 -84 -81 -93 -81 -3 0 -15 -9 -27 -20 -14 -13 -36 -20
-59 -20 -31 0 -38 -4 -43 -26 -4 -15 -10 -24 -13 -20 -7 7 -63 -25 -63 -36 0
-4 -6 -8 -13 -8 -13 0 -47 -34 -47 -47 0 -4 -15 -20 -32 -35 -23 -20 -40 -27
-56 -23 -21 5 -22 2 -22 -48 0 -48 -4 -58 -34 -90 -19 -20 -40 -50 -47 -67 -8
-16 -19 -30 -26 -30 -6 0 -15 -9 -18 -20 -3 -11 -14 -20 -23 -20 -18 -1 -52
-23 -52 -34 0 -3 -9 -15 -20 -26 -12 -12 -20 -33 -20 -53 0 -23 -7 -38 -25
-51 -14 -10 -25 -25 -25 -32 0 -8 -12 -17 -27 -20 -69 -18 -130 -139 -103
-205 11 -25 10 -32 -3 -47 -10 -11 -19 -46 -23 -92 -7 -71 -9 -75 -56 -121
-26 -26 -48 -52 -48 -58 0 -6 -5 -11 -11 -11 -15 0 -5 -126 11 -146 12 -14 -3
-54 -20 -54 -4 0 -10 -30 -13 -67 -2 -38 -10 -86 -17 -108 -15 -43 -18 -189
-5 -242 4 -19 15 -35 26 -38 17 -6 19 -17 19 -106 0 -59 4 -99 10 -99 6 0 10
-22 10 -49 0 -28 5 -53 10 -56 6 -3 10 -15 10 -25 0 -20 59 -87 72 -82 12 3 8
-456 -5 -687 -9 -144 -16 -206 -25 -209 -9 -3 -12 -47 -12 -167 0 -136 3 -164
15 -169 9 -3 15 -18 15 -40 0 -19 6 -41 12 -48 10 -10 11 -48 7 -158 -12 -264
-10 -505 3 -518 7 -7 16 -43 20 -80 13 -125 24 -177 39 -200 13 -18 14 -32 7
-70 -24 -125 -23 -525 2 -542 8 -6 16 -48 30 -162 5 -43 18 -96 29 -119 11
-22 26 -74 32 -115 7 -41 17 -74 21 -74 4 0 8 -10 8 -23 0 -12 6 -31 14 -42 7
-11 16 -42 19 -70 11 -83 19 -120 30 -126 5 -4 14 -53 20 -110 5 -57 14 -107
19 -110 15 -10 28 -126 28 -251 0 -90 3 -120 15 -132 8 -8 15 -24 15 -34 0
-11 4 -22 10 -24 5 -2 10 -107 11 -266 1 -210 4 -265 15 -277 8 -7 14 -18 14
-23 0 -19 81 -94 96 -88 9 3 18 -2 21 -12 11 -27 63 -72 85 -72 12 0 35 -9 52
-19 31 -19 198 -43 312 -44 l51 -1 17 -45 c9 -25 16 -53 16 -62 0 -8 16 -33
35 -55 19 -21 35 -44 35 -50 0 -7 7 -14 15 -18 8 -3 15 -12 15 -21 0 -12 4
-14 20 -5 38 21 69 -4 70 -57 0 -18 4 -33 9 -33 5 0 11 -15 14 -32 3 -18 11
-51 17 -73 7 -22 15 -66 17 -98 3 -31 9 -57 14 -57 5 0 9 -13 9 -29 0 -15 5
-42 11 -59 9 -25 29 -111 55 -233 4 -19 -1 -32 -20 -50 -14 -13 -26 -29 -26
-35 0 -10 23 -40 74 -94 10 -11 15 -56 18 -170 3 -85 8 -163 12 -172 4 -9 24
-22 44 -29 43 -14 91 -57 92 -81 0 -9 11 -28 25 -42 17 -17 25 -36 25 -61 0
-31 10 -45 80 -114 44 -43 80 -83 80 -89 0 -6 9 -16 20 -22 10 -6 24 -28 30
-50 6 -22 15 -40 20 -40 6 0 10 -6 10 -14 0 -8 6 -21 13 -28 8 -7 17 -25 20
-40 4 -15 39 -59 77 -97 39 -40 70 -79 70 -90 0 -11 5 -23 10 -26 6 -3 10 -13
10 -20 0 -8 64 -79 142 -159 79 -79 184 -187 235 -240 50 -53 95 -96 100 -96
5 0 15 -9 23 -20 8 -11 19 -20 25 -20 5 0 23 -11 39 -25 16 -14 33 -25 38 -25
5 0 33 -25 63 -55 29 -30 58 -55 64 -55 6 0 15 -9 21 -20 6 -11 16 -20 22 -20
6 0 18 -8 27 -18 32 -34 60 -42 151 -42 53 0 90 -4 90 -10 0 -5 7 -10 15 -10
9 0 115 -99 236 -220 l220 -220 55 0 c33 0 64 -6 79 -16 13 -8 50 -18 82 -21
38 -4 63 -12 74 -25 9 -10 23 -18 31 -18 8 0 23 -8 34 -17 29 -27 84 -43 145
-43 74 0 170 -29 214 -65 21 -16 69 -60 107 -96 47 -45 80 -69 101 -72 18 -3
64 -13 102 -21 39 -8 108 -16 155 -16 105 -1 170 -13 186 -34 15 -21 97 -22
118 -1 9 9 33 15 60 15 25 0 46 4 46 9 0 17 264 38 274 22 9 -13 164 -15 198
-2 13 5 33 18 45 28 19 17 44 21 170 26 81 4 149 3 151 -2 5 -16 77 17 115 53
37 35 39 36 120 36 64 0 89 4 115 20 19 12 50 20 77 20 25 0 50 6 59 15 8 8
19 15 25 15 6 0 11 5 11 10 0 6 7 10 15 10 8 0 15 5 15 10 0 6 20 10 45 10 43
0 49 4 120 76 41 42 75 81 75 86 0 5 20 29 44 53 24 24 50 53 56 65 13 25 32
48 80 100 19 21 42 48 50 60 23 34 98 114 292 311 l178 179 164 0 165 0 83 85
c46 46 103 107 128 135 25 28 64 72 88 97 23 25 42 51 42 58 0 7 23 36 50 65
28 29 50 61 50 71 0 11 5 19 11 19 6 0 3 8 -7 17 -16 16 -15 18 10 24 23 6 49
29 94 84 6 7 14 25 18 39 3 14 10 26 15 26 7 0 19 19 51 80 7 14 18 31 25 38
7 7 13 20 13 28 0 8 4 14 8 14 5 0 15 18 22 39 7 22 19 42 26 45 8 3 14 11 14
19 0 7 9 32 20 55 27 56 25 70 -12 104 l-32 28 42 0 c31 0 47 6 67 25 14 14
25 33 25 41 0 9 6 28 14 42 13 25 24 55 74 192 11 30 32 96 47 145 15 50 31
99 35 110 14 38 28 90 35 125 11 55 30 78 59 73 l26 -5 0 118 c0 100 4 130 27
202 l27 85 -28 23 -27 24 25 0 c14 0 28 -5 31 -10 5 -8 11 -7 21 1 11 9 24 9
52 1 20 -6 51 -11 67 -12 17 0 112 -3 211 -6 131 -4 188 -3 204 6 12 6 48 16
80 20 53 8 63 13 114 65 58 60 76 93 57 105 -8 4 -5 15 10 33 18 24 21 41 22
150 0 132 -8 193 -29 215 -9 8 -14 36 -14 73 0 74 36 261 60 314 10 22 24 65
31 95 8 30 19 59 26 63 7 4 13 21 13 36 0 16 7 31 15 35 9 3 15 18 15 35 0 41
20 131 35 161 14 27 60 151 70 187 4 13 12 29 18 36 19 20 37 55 37 71 0 8 4
16 8 18 11 4 77 207 91 278 20 99 33 320 38 618 2 170 8 292 14 292 12 0 12
77 -1 82 -6 2 -4 35 4 88 10 57 11 89 4 97 -17 21 -23 131 -7 149 7 9 16 39
20 68 4 28 10 75 14 103 6 37 4 57 -5 68 -7 8 -8 15 -2 15 5 0 17 23 26 50 13
40 14 55 5 72 -17 31 -6 307 12 319 10 6 10 13 1 34 -15 32 -16 251 -2 260 6
4 10 107 10 276 0 254 9 349 32 349 3 0 9 34 13 75 5 51 13 81 26 96 11 12 19
32 19 44 0 13 7 28 15 35 14 12 13 15 -5 32 -19 18 -20 30 -20 263 0 152 4
246 10 250 13 8 13 86 1 118 -6 14 -19 28 -30 32 -24 7 -28 43 -6 51 8 4 21
28 29 55 8 27 22 57 31 66 14 13 16 35 13 125 -2 78 -7 111 -17 117 -12 8 -25
50 -38 129 -3 17 -9 32 -13 32 -5 0 -12 10 -16 22 -3 12 -30 45 -59 74 -55 53
-72 85 -58 106 4 7 13 43 19 80 7 37 19 74 28 83 18 18 24 51 29 162 3 59 8
86 20 98 25 24 30 58 19 112 -13 60 -5 133 15 133 11 0 11 4 3 20 -6 11 -16
17 -25 14 -8 -4 -15 -2 -15 4 0 5 -9 12 -20 15 -20 5 -28 27 -10 27 6 0 10 20
10 45 0 25 -4 45 -10 45 -5 0 -10 12 -10 26 0 14 -7 32 -15 40 -8 9 -15 25
-15 37 0 13 -9 30 -20 40 -21 17 -28 57 -10 57 13 0 13 37 1 42 -12 4 -34 170
-28 211 3 25 -2 37 -33 68 -33 33 -39 47 -48 110 -6 40 -15 75 -20 78 -5 3
-13 31 -18 61 -7 43 -13 56 -29 59 -32 6 -56 42 -53 77 1 18 -3 38 -10 46 -6
8 -15 29 -18 47 -4 18 -14 35 -23 39 -23 9 -61 49 -61 65 0 8 -9 22 -20 32
-12 11 -18 25 -15 36 4 12 -3 29 -20 46 -14 16 -28 39 -32 53 -7 28 -50 70
-72 70 -17 0 -40 29 -41 53 0 9 -4 17 -9 17 -5 0 -15 16 -21 36 -7 19 -20 40
-31 47 -28 17 -25 65 6 93 32 29 32 46 1 38 -14 -3 -29 0 -39 10 -8 9 -21 16
-28 16 -15 0 -49 39 -49 57 0 7 -13 27 -30 43 -16 16 -30 34 -30 40 0 5 -18
10 -40 10 -23 0 -52 7 -65 16 -14 9 -57 18 -102 21 -65 5 -82 10 -100 30 -13
13 -23 28 -23 34 0 5 -21 9 -47 9 -52 0 -62 5 -79 35 -10 17 -22 20 -87 20
-81 0 -72 -4 -132 70 -11 14 -24 25 -30 25 -5 0 -23 25 -39 56 -32 61 -74 114
-91 114 -6 0 -17 9 -25 21 -25 35 -60 47 -126 42 -47 -4 -64 -2 -76 11 -9 9
-23 16 -30 16 -22 0 -38 21 -38 50 -1 41 -49 87 -65 60 -6 -10 -55 0 -55 12 0
5 -5 6 -11 2 -6 -3 -43 -8 -82 -10 -59 -3 -75 -7 -90 -25 -15 -19 -27 -21 -95
-21 -205 2 -292 20 -277 60 2 6 -2 12 -11 12 -8 0 -25 9 -37 20 -19 18 -29 20
-77 14 -30 -4 -56 -11 -58 -15 -5 -12 -59 -11 -67 0 -3 5 -30 22 -60 37 -30
16 -55 32 -55 36 0 4 -24 8 -53 8 -44 0 -58 5 -87 30 -53 46 -58 50 -70 50 -5
0 -10 4 -10 9 0 5 -13 12 -29 16 -16 3 -32 13 -35 21 -3 8 -12 14 -21 14 -8 0
-15 5 -15 10 0 6 -5 10 -11 10 -16 0 -38 26 -54 65 -12 27 -20 34 -37 32 -14
-3 -31 6 -45 21 -16 17 -29 23 -44 19 -16 -4 -30 3 -53 27 -18 18 -37 31 -43
29 -6 -2 -14 1 -18 6 -3 6 -13 11 -21 11 -8 0 -39 25 -69 55 -30 30 -61 55
-70 55 -8 0 -15 4 -15 8 0 10 -65 30 -100 31 -13 0 -34 4 -45 10 -11 5 -45 19
-75 31 -30 12 -58 27 -61 31 -3 5 -32 14 -65 20 -32 6 -67 15 -76 20 -10 5
-34 9 -53 9 -19 0 -35 4 -35 9 0 8 -19 15 -90 29 -24 5 -36 14 -40 30 -5 22
-5 22 -18 2z"/>
</g>
</svg>
